<?xml version="1.0" encoding="UTF-8" standalone="no"?>
<svg
   id="svgCartoHexach0"
   width="786"
   height="643"
   version="1.1"
   sodipodi:docname="actants.svg"
   inkscape:version="1.3 (0e150ed, 2023-07-21)"
   xmlns:inkscape="http://www.inkscape.org/namespaces/inkscape"
   xmlns:sodipodi="http://sodipodi.sourceforge.net/DTD/sodipodi-0.dtd"
   xmlns="http://www.w3.org/2000/svg"
   xmlns:svg="http://www.w3.org/2000/svg">
  <defs
     id="defs39">
    <defs
       id="defs1">
      <marker
         id="arrow"
         viewBox="0 0 20 20"
         refX="10"
         refY="10"
         markerWidth="20"
         markerHeight="20"
         orient="auto-start-reverse">
        <path
           d="M 0,0 V 20 L 20,10"
           fill="#ffffff32"
           id="path1" />
      </marker>
      <marker
         id="point"
         viewBox="0 0 20 20"
         refX="10"
         refY="10"
         markerWidth="20"
         markerHeight="20"
         orient="auto">
        <circle
           r="5"
           cx="10"
           cy="10"
           fill="#ffffff32"
           id="circle1" />
      </marker>
    </defs>
  </defs>
  <sodipodi:namedview
     id="namedview39"
     pagecolor="#ffffff"
     bordercolor="#000000"
     borderopacity="0.25"
     inkscape:showpageshadow="2"
     inkscape:pageopacity="0.0"
     inkscape:pagecheckerboard="0"
     inkscape:deskcolor="#d1d1d1"
     inkscape:zoom="29.234631"
     inkscape:cx="235.7136"
     inkscape:cy="349.70512"
     inkscape:window-width="1728"
     inkscape:window-height="966"
     inkscape:window-x="0"
     inkscape:window-y="38"
     inkscape:window-maximized="1"
     inkscape:current-layer="svgCartoHexach0" />
  <g
     class="gInit"
     id="ch0_hexa_0_-1_-1_2"
     transform="matrix(0.74247245,0,0,0.74247245,124.32686,156.81182)"
     style="fill:none;stroke:#000000;stroke-opacity:1">
    <polygon
       points="100,0 50,-86.60254 -50,-86.60254 -100,-1.2246468e-14 -50,86.60254 50,86.60254 "
       fill="#102040"
       stroke="#a8acaf"
       id="polygon4"
       style="fill:none;stroke:#000000;stroke-opacity:1" />
  </g>
  <g
     class="gInit"
     id="ch0_hexa_0_-1_0_1"
     transform="matrix(0.74247245,0,0,0.74247245,124.32686,285.41182)"
     style="fill:none;stroke:#000000;stroke-opacity:1">
    <polygon
       points="100,0 50,-86.60254 -50,-86.60254 -100,-1.2246468e-14 -50,86.60254 50,86.60254 "
       fill="#102040"
       stroke="#a8acaf"
       id="polygon5"
       style="fill:none;stroke:#000000;stroke-opacity:1" />
  </g>
  <g
     class="gInit"
     id="ch0_hexa_0_0_-2_2"
     transform="matrix(2.2251574,0,0,2.2245334,235.69773,221.60228)"
     style="fill:none;stroke:#000000;stroke-opacity:1">
    <polygon
       points="-50,86.60254 50,86.60254 100,0 50,-86.60254 -50,-86.60254 -100,-1.2246468e-14 "
       fill="#102040"
       stroke="#a8acaf"
       id="polygon8"
       style="fill:none;stroke:#000000;stroke-opacity:1" />
  </g>
  <g
     class="gOccupe"
     id="ch0_hexa_0_0_0_0"
     transform="matrix(0.74247245,0,0,0.74247245,235.69773,349.71182)"
     style="fill:none;stroke:#000000;stroke-opacity:1">
    <polygon
       points="100,0 50,-86.60254 -50,-86.60254 -100,-1.2246468e-14 -50,86.60254 50,86.60254 "
       fill="#102040"
       stroke="#a8acaf"
       id="polygon10"
       style="fill:none;stroke:#000000;stroke-opacity:1" />
  </g>
  <g
     class="gInit"
     id="ch0_hexa_0_1_-2_1"
     transform="matrix(0.74247245,0,0,0.74247245,347.0686,156.81182)"
     style="fill:none;stroke:#000000;stroke-opacity:1">
    <polygon
       points="100,0 50,-86.60254 -50,-86.60254 -100,-1.2246468e-14 -50,86.60254 50,86.60254 "
       fill="#102040"
       stroke="#a8acaf"
       id="polygon13"
       style="fill:none;stroke:#000000;stroke-opacity:1" />
  </g>
  <g
     class="gInit"
     id="ch0_hexa_0_1_-1_0"
     transform="matrix(0.74247245,0,0,0.74247245,347.0686,285.41182)"
     style="fill:none;stroke:#000000;stroke-opacity:1">
    <polygon
       points="100,0 50,-86.60254 -50,-86.60254 -100,-1.2246468e-14 -50,86.60254 50,86.60254 "
       fill="#102040"
       stroke="#a8acaf"
       id="polygon14"
       style="fill:none;stroke:#000000;stroke-opacity:1" />
  </g>
  <g
     class="gInit"
     id="ch0_hexa_0_2_-2_0"
     transform="matrix(2.2251574,0,0,2.2245334,235.69773,221.60228)"
     style="fill:none;stroke:#000000;stroke-opacity:1">
    <polygon
       points="50,-86.60254 -50,-86.60254 -100,-1.2246468e-14 -50,86.60254 50,86.60254 100,0 "
       fill="#102040"
       stroke="#a8acaf"
       id="polygon17"
       style="fill:none;stroke:#000000;stroke-opacity:1" />
  </g>
  <g
     class="gInit"
     id="ch0_hexa_0_2_0_-2"
     transform="matrix(0.74247245,0,0,0.74247245,236.4547,92.185554)"
     style="fill:none;stroke:#000000;stroke-opacity:1">
    <polygon
       points="-100,-1.2246468e-14 -50,86.60254 50,86.60254 100,0 50,-86.60254 -50,-86.60254 "
       fill="#102040"
       stroke="#a8acaf"
       id="polygon19"
       style="fill:none;stroke:#000000;stroke-opacity:1" />
  </g>
  <polygon
     points="-50,86.60254 50,86.60254 100,0 50,-86.60254 -50,-86.60254 -100,-1.2246468e-14 "
     fill="rgba(26, 199, 194, 0.1)"
     stroke="#000000"
     stroke-width="0.1"
     class="eHexaOut"
     id="polygon20"
     style="fill:none;stroke:#000000;stroke-opacity:1"
     transform="matrix(0.74247245,0,0,0.74247245,235.69773,349.71182)" />
  <g
     class="gInit cpt79697"
     id="ch0_espace_422811_79697_hexa_0_2_-2_0_2"
     transform="matrix(0.74247245,0,0,0.74247245,191.14938,323.99182)"
     style="fill:none;stroke:#000000;stroke-opacity:1">
    <polygon
       points="-10,17.320508 10,17.320508 20,0 10,-17.320508 -10,-17.320508 -20,-2.4492936e-15 "
       fill="rgba(26, 199, 194, 0.1)"
       stroke="#ffffff"
       stroke-width="0.05"
       id="polygon21"
       style="fill:none;stroke:#000000;stroke-opacity:1" />
  </g>
  <g
     class="gInit cpt79697"
     id="ch0_espace_422811_79697_hexa_0_2_-2_1_1"
     transform="matrix(0.74247245,0,0,0.74247245,191.14938,349.71182)"
     style="fill:none;stroke:#000000;stroke-opacity:1">
    <polygon
       points="-10,17.320508 10,17.320508 20,0 10,-17.320508 -10,-17.320508 -20,-2.4492936e-15 "
       fill="rgba(26, 199, 194, 0.1)"
       stroke="#ffffff"
       stroke-width="0.05"
       id="polygon22"
       style="fill:none;stroke:#000000;stroke-opacity:1" />
  </g>
  <g
     class="gInit cpt79697"
     id="ch0_espace_422811_79697_hexa_0_2_-2_2_0"
     transform="matrix(0.74247245,0,0,0.74247245,191.14938,375.43182)"
     style="fill:none;stroke:#000000;stroke-opacity:1">
    <polygon
       points="-10,17.320508 10,17.320508 20,0 10,-17.320508 -10,-17.320508 -20,-2.4492936e-15 "
       fill="rgba(26, 199, 194, 0.1)"
       stroke="#ffffff"
       stroke-width="0.05"
       id="polygon23"
       style="fill:none;stroke:#000000;stroke-opacity:1" />
  </g>
  <g
     class="gInit cpt79697"
     id="ch0_espace_422811_79697_hexa_0_2_-1_-1_2"
     transform="matrix(0.74247245,0,0,0.74247245,213.42356,311.13182)"
     style="fill:none;stroke:#000000;stroke-opacity:1">
    <polygon
       points="-10,17.320508 10,17.320508 20,0 10,-17.320508 -10,-17.320508 -20,-2.4492936e-15 "
       fill="rgba(26, 199, 194, 0.1)"
       stroke="#ffffff"
       stroke-width="0.05"
       id="polygon24"
       style="fill:none;stroke:#000000;stroke-opacity:1" />
  </g>
  <g
     class="gInit cpt79697"
     id="ch0_espace_422811_79697_hexa_0_2_-1_0_1"
     transform="matrix(0.74247245,0,0,0.74247245,213.42356,336.85182)"
     style="fill:none;stroke:#000000;stroke-opacity:1">
    <polygon
       points="-10,17.320508 10,17.320508 20,0 10,-17.320508 -10,-17.320508 -20,-2.4492936e-15 "
       fill="rgba(26, 199, 194, 0.1)"
       stroke="#ffffff"
       stroke-width="0.05"
       id="polygon25"
       style="fill:none;stroke:#000000;stroke-opacity:1" />
  </g>
  <g
     class="gInit cpt79697"
     id="ch0_espace_422811_79697_hexa_0_2_-1_1_0"
     transform="matrix(0.74247245,0,0,0.74247245,213.42356,362.57182)"
     style="fill:none;stroke:#000000;stroke-opacity:1">
    <polygon
       points="-10,17.320508 10,17.320508 20,0 10,-17.320508 -10,-17.320508 -20,-2.4492936e-15 "
       fill="rgba(26, 199, 194, 0.1)"
       stroke="#ffffff"
       stroke-width="0.05"
       id="polygon26"
       style="fill:none;stroke:#000000;stroke-opacity:1" />
  </g>
  <g
     class="gInit cpt79697"
     id="ch0_espace_422811_79697_hexa_0_2_-1_2_-1"
     transform="matrix(0.74247245,0,0,0.74247245,213.42356,388.29182)"
     style="fill:none;stroke:#000000;stroke-opacity:1">
    <polygon
       points="-10,17.320508 10,17.320508 20,0 10,-17.320508 -10,-17.320508 -20,-2.4492936e-15 "
       fill="rgba(26, 199, 194, 0.1)"
       stroke="#ffffff"
       stroke-width="0.05"
       id="polygon27"
       style="fill:none;stroke:#000000;stroke-opacity:1" />
  </g>
  <g
     class="gInit cpt79697"
     id="ch0_espace_422811_79697_hexa_0_2_0_-2_2"
     transform="matrix(0.74247245,0,0,0.74247245,235.69773,298.27182)"
     style="fill:none;stroke:#000000;stroke-opacity:1">
    <polygon
       points="-10,17.320508 10,17.320508 20,0 10,-17.320508 -10,-17.320508 -20,-2.4492936e-15 "
       fill="rgba(26, 199, 194, 0.1)"
       stroke="#ffffff"
       stroke-width="0.05"
       id="polygon28"
       style="fill:none;stroke:#000000;stroke-opacity:1" />
  </g>
  <g
     class="gInit cpt79697"
     id="ch0_espace_422811_79697_hexa_0_2_0_-1_1"
     transform="matrix(0.74247245,0,0,0.74247245,235.69773,323.99182)"
     style="fill:none;stroke:#000000;stroke-opacity:1">
    <polygon
       points="-10,17.320508 10,17.320508 20,0 10,-17.320508 -10,-17.320508 -20,-2.4492936e-15 "
       fill="rgba(26, 199, 194, 0.1)"
       stroke="#ffffff"
       stroke-width="0.05"
       id="polygon29"
       style="fill:none;stroke:#000000;stroke-opacity:1" />
  </g>
  <g
     class="gInit cpt79697"
     id="ch0_espace_422811_79697_hexa_0_2_0_0_0"
     style="fill:none;stroke:#000000;stroke-opacity:1"
     transform="matrix(0.74247245,0,0,0.74247245,235.69773,349.71182)">
    <polygon
       points="-10,17.320508 10,17.320508 20,0 10,-17.320508 -10,-17.320508 -20,-2.4492936e-15 "
       fill="rgba(26, 199, 194, 0.1)"
       stroke="#ffffff"
       stroke-width="0.05"
       id="polygon30"
       style="fill:none;stroke:#000000;stroke-opacity:1" />
  </g>
  <g
     class="gInit cpt79697"
     id="ch0_espace_422811_79697_hexa_0_2_0_1_-1"
     transform="matrix(0.74247245,0,0,0.74247245,235.69773,375.43182)"
     style="fill:none;stroke:#000000;stroke-opacity:1">
    <polygon
       points="-10,17.320508 10,17.320508 20,0 10,-17.320508 -10,-17.320508 -20,-2.4492936e-15 "
       fill="rgba(26, 199, 194, 0.1)"
       stroke="#ffffff"
       stroke-width="0.05"
       id="polygon31"
       style="fill:none;stroke:#000000;stroke-opacity:1" />
  </g>
  <g
     class="gInit cpt79697"
     id="ch0_espace_422811_79697_hexa_0_2_0_2_-2"
     transform="matrix(0.74247245,0,0,0.74247245,235.69773,401.15182)"
     style="fill:none;stroke:#000000;stroke-opacity:1">
    <polygon
       points="-10,17.320508 10,17.320508 20,0 10,-17.320508 -10,-17.320508 -20,-2.4492936e-15 "
       fill="rgba(26, 199, 194, 0.1)"
       stroke="#ffffff"
       stroke-width="0.05"
       id="polygon32"
       style="fill:none;stroke:#000000;stroke-opacity:1" />
  </g>
  <g
     class="gInit cpt79697"
     id="ch0_espace_422811_79697_hexa_0_2_1_-2_1"
     transform="matrix(0.74247245,0,0,0.74247245,257.9719,311.13182)"
     style="fill:none;stroke:#000000;stroke-opacity:1">
    <polygon
       points="-10,17.320508 10,17.320508 20,0 10,-17.320508 -10,-17.320508 -20,-2.4492936e-15 "
       fill="rgba(26, 199, 194, 0.1)"
       stroke="#ffffff"
       stroke-width="0.05"
       id="polygon33"
       style="fill:none;stroke:#000000;stroke-opacity:1" />
  </g>
  <g
     class="gInit cpt79697"
     id="ch0_espace_422811_79697_hexa_0_2_1_-1_0"
     transform="matrix(0.74247245,0,0,0.74247245,257.9719,336.85182)"
     style="fill:none;stroke:#000000;stroke-opacity:1">
    <polygon
       points="-10,17.320508 10,17.320508 20,0 10,-17.320508 -10,-17.320508 -20,-2.4492936e-15 "
       fill="rgba(26, 199, 194, 0.1)"
       stroke="#ffffff"
       stroke-width="0.05"
       id="polygon34"
       style="fill:none;stroke:#000000;stroke-opacity:1" />
  </g>
  <g
     class="gInit cpt79697"
     id="ch0_espace_422811_79697_hexa_0_2_1_0_-1"
     transform="matrix(0.74247245,0,0,0.74247245,257.9719,362.57182)"
     style="fill:none;stroke:#000000;stroke-opacity:1">
    <polygon
       points="-10,17.320508 10,17.320508 20,0 10,-17.320508 -10,-17.320508 -20,-2.4492936e-15 "
       fill="rgba(26, 199, 194, 0.1)"
       stroke="#ffffff"
       stroke-width="0.05"
       id="polygon35"
       style="fill:none;stroke:#000000;stroke-opacity:1" />
  </g>
  <g
     class="gInit cpt79697"
     id="ch0_espace_422811_79697_hexa_0_2_1_1_-2"
     transform="matrix(0.74247245,0,0,0.74247245,257.9719,388.29182)"
     style="fill:none;stroke:#000000;stroke-opacity:1">
    <polygon
       points="-10,17.320508 10,17.320508 20,0 10,-17.320508 -10,-17.320508 -20,-2.4492936e-15 "
       fill="rgba(26, 199, 194, 0.1)"
       stroke="#ffffff"
       stroke-width="0.05"
       id="polygon36"
       style="fill:none;stroke:#000000;stroke-opacity:1" />
  </g>
  <g
     class="gInit cpt79697"
     id="ch0_espace_422811_79697_hexa_0_2_2_-2_0"
     transform="matrix(0.74247245,0,0,0.74247245,280.24608,323.99182)"
     style="fill:none;stroke:#000000;stroke-opacity:1">
    <polygon
       points="-10,17.320508 10,17.320508 20,0 10,-17.320508 -10,-17.320508 -20,-2.4492936e-15 "
       fill="rgba(26, 199, 194, 0.1)"
       stroke="#ffffff"
       stroke-width="0.05"
       id="polygon37"
       style="fill:none;stroke:#000000;stroke-opacity:1" />
  </g>
  <g
     class="gInit cpt79697"
     id="ch0_espace_422811_79697_hexa_0_2_2_-1_-1"
     transform="matrix(0.74247245,0,0,0.74247245,280.24608,349.71182)"
     style="fill:none;stroke:#000000;stroke-opacity:1">
    <polygon
       points="-10,17.320508 10,17.320508 20,0 10,-17.320508 -10,-17.320508 -20,-2.4492936e-15 "
       fill="rgba(26, 199, 194, 0.1)"
       stroke="#ffffff"
       stroke-width="0.05"
       id="polygon38"
       style="fill:none;stroke:#000000;stroke-opacity:1" />
  </g>
  <g
     class="gInit cpt79697"
     id="ch0_espace_422811_79697_hexa_0_2_2_0_-2"
     transform="matrix(0.74247245,0,0,0.74247245,280.24608,375.43182)"
     style="fill:none;stroke:#000000;stroke-opacity:1">
    <polygon
       points="-10,17.320508 10,17.320508 20,0 10,-17.320508 -10,-17.320508 -20,-2.4492936e-15 "
       fill="rgba(26, 199, 194, 0.1)"
       stroke="#ffffff"
       stroke-width="0.05"
       id="polygon39"
       style="fill:none;stroke:#000000;stroke-opacity:1" />
  </g>
  <g
     class="gInit"
     id="ch0_hexa_0_0_-1_1"
     transform="matrix(0.74247245,0,0,0.74247245,235.69772,221.11182)"
     style="fill:none;stroke:#000000;stroke-opacity:1">
    <polygon
       points="-100,-1.2246468e-14 -50,86.60254 50,86.60254 100,0 50,-86.60254 -50,-86.60254 "
       fill="#102040"
       stroke="#a8acaf"
       id="polygon9"
       style="fill:none;stroke:#000000;stroke-opacity:1" />
  </g>
  <ellipse
     style="fill:none;stroke:#000000;stroke-width:0.850294;stroke-opacity:1"
     id="path39"
     ry="71.03186"
     rx="108.22018"
     cy="514.63635"
     cx="639.05615"
     inkscape:export-filename="actantP8.svg"
     inkscape:export-xdpi="96"
     inkscape:export-ydpi="96" />
  <g
     class="gInit"
     id="ch0_hexa_0_0_-1_1-3"
     transform="matrix(0.74247245,0,0,0.74247245,638.64053,462.1025)"
     style="fill:#ffffff;stroke:#000000;stroke-opacity:1;fill-opacity:1">
    <polygon
       points="-100,-1.2246468e-14 -50,86.60254 50,86.60254 100,0 50,-86.60254 -50,-86.60254 "
       fill="#102040"
       stroke="#a8acaf"
       id="polygon9-6"
       style="fill:#ffffff;stroke:#000000;stroke-opacity:1;fill-opacity:1" />
  </g>
  <text
     xml:space="preserve"
     style="font-family:Garamond;-inkscape-font-specification:Garamond;fill:#000000;stroke:none;stroke-opacity:1;fill-opacity:1"
     x="594.46082"
     y="466.17477"
     id="text39-5"><tspan
       sodipodi:role="line"
       id="tspan39-9"
       x="594.46082"
       y="466.17477">Université  Paris 8</tspan></text>
  <text
     xml:space="preserve"
     style="font-family:Garamond;-inkscape-font-specification:Garamond;fill:#000000;fill-opacity:1;stroke:none;stroke-opacity:1"
     x="191.51804"
     y="225.18408"
     id="text41"><tspan
       sodipodi:role="line"
       id="tspan41"
       x="191.51804"
       y="225.18408">Université  Paris 8</tspan></text>
  <text
     xml:space="preserve"
     style="font-family:Garamond;-inkscape-font-specification:Garamond;fill:#000000;fill-opacity:1;stroke:none;stroke-opacity:1"
     x="223.94089"
     y="353.59073"
     id="text42"><tspan
       sodipodi:role="line"
       id="tspan42"
       x="223.94089"
       y="353.59073">UFR</tspan></text>
</svg>
