<svg id="ch0svgE" viewBox="-400 -433.0127018922193 800 866.0254037844386"><defs><marker id="arrow" viewBox="0,0,20,20" refX="10" refY="10" markerWidth="20" markerHeight="20" orient="auto-start-reverse"><path d="M0,0L0,20L20,10" fill="#ffffff32"></path></marker><marker id="point" viewBox="0,0,20,20" refX="10" refY="10" markerWidth="20" markerHeight="20" orient="auto"><circle r="5" cx="10" cy="10" fill="#ffffff32"></circle></marker></defs><g class="gInit" id="ch0_hexa_0_-2_0_2" transform="translate(-300,-173.20508075688772)"><polygon points="100,0 50.000000000000014,-86.60254037844386 -49.99999999999998,-86.60254037844388 -100,-1.2246467991473532e-14 -50.00000000000004,86.60254037844383 50.000000000000014,86.60254037844386" fill="#102040" stroke="#a8acaf"></polygon></g><g class="gInit" id="ch0_hexa_0_-2_1_1" transform="translate(-300,0)"><polygon points="100,0 50.000000000000014,-86.60254037844386 -49.99999999999998,-86.60254037844388 -100,-1.2246467991473532e-14 -50.00000000000004,86.60254037844383 50.000000000000014,86.60254037844386" fill="#102040" stroke="#a8acaf"></polygon></g><g class="gInit" id="ch0_hexa_0_-2_2_0" transform="translate(-300,173.20508075688772)"><polygon points="100,0 50.000000000000014,-86.60254037844386 -49.99999999999998,-86.60254037844388 -100,-1.2246467991473532e-14 -50.00000000000004,86.60254037844383 50.000000000000014,86.60254037844386" fill="#102040" stroke="#a8acaf"></polygon></g><g class="gInit" id="ch0_hexa_0_-1_-1_2" transform="translate(-150,-259.8076211353316)"><polygon points="100,0 50.000000000000014,-86.60254037844386 -49.99999999999998,-86.60254037844388 -100,-1.2246467991473532e-14 -50.00000000000004,86.60254037844383 50.000000000000014,86.60254037844386" fill="#102040" stroke="#a8acaf"></polygon></g><g class="gInit" id="ch0_hexa_0_-1_0_1" transform="translate(-150,-86.60254037844386)"><polygon points="100,0 50.000000000000014,-86.60254037844386 -49.99999999999998,-86.60254037844388 -100,-1.2246467991473532e-14 -50.00000000000004,86.60254037844383 50.000000000000014,86.60254037844386" fill="#102040" stroke="#a8acaf"></polygon></g><g class="gInit" id="ch0_hexa_0_-1_1_0" transform="translate(-150,86.60254037844386)"><polygon points="100,0 50.000000000000014,-86.60254037844386 -49.99999999999998,-86.60254037844388 -100,-1.2246467991473532e-14 -50.00000000000004,86.60254037844383 50.000000000000014,86.60254037844386" fill="#102040" stroke="#a8acaf"></polygon></g><g class="gInit" id="ch0_hexa_0_-1_2_-1" transform="translate(-150,259.8076211353316)"><polygon points="100,0 50.000000000000014,-86.60254037844386 -49.99999999999998,-86.60254037844388 -100,-1.2246467991473532e-14 -50.00000000000004,86.60254037844383 50.000000000000014,86.60254037844386" fill="#102040" stroke="#a8acaf"></polygon></g><g class="gInit" id="ch0_hexa_0_0_-2_2" transform="translate(0,-346.41016151377545)"><polygon points="100,0 50.000000000000014,-86.60254037844386 -49.99999999999998,-86.60254037844388 -100,-1.2246467991473532e-14 -50.00000000000004,86.60254037844383 50.000000000000014,86.60254037844386" fill="#102040" stroke="#a8acaf"></polygon></g><g class="gInit" id="ch0_hexa_0_0_-1_1" transform="translate(0,-173.20508075688772)"><polygon points="100,0 50.000000000000014,-86.60254037844386 -49.99999999999998,-86.60254037844388 -100,-1.2246467991473532e-14 -50.00000000000004,86.60254037844383 50.000000000000014,86.60254037844386" fill="#102040" stroke="#a8acaf"></polygon></g><g class="gOccupe" id="ch0_hexa_0_0_0_0" transform="translate(0,0)"><polygon points="100,0 50.000000000000014,-86.60254037844386 -49.99999999999998,-86.60254037844388 -100,-1.2246467991473532e-14 -50.00000000000004,86.60254037844383 50.000000000000014,86.60254037844386" fill="#102040" stroke="#a8acaf"></polygon></g><g class="gInit" id="ch0_hexa_0_0_1_-1" transform="translate(0,173.20508075688772)"><polygon points="100,0 50.000000000000014,-86.60254037844386 -49.99999999999998,-86.60254037844388 -100,-1.2246467991473532e-14 -50.00000000000004,86.60254037844383 50.000000000000014,86.60254037844386" fill="#102040" stroke="#a8acaf"></polygon></g><g class="gInit" id="ch0_hexa_0_0_2_-2" transform="translate(0,346.41016151377545)"><polygon points="100,0 50.000000000000014,-86.60254037844386 -49.99999999999998,-86.60254037844388 -100,-1.2246467991473532e-14 -50.00000000000004,86.60254037844383 50.000000000000014,86.60254037844386" fill="#102040" stroke="#a8acaf"></polygon></g><g class="gInit" id="ch0_hexa_0_1_-2_1" transform="translate(150,-259.8076211353316)"><polygon points="100,0 50.000000000000014,-86.60254037844386 -49.99999999999998,-86.60254037844388 -100,-1.2246467991473532e-14 -50.00000000000004,86.60254037844383 50.000000000000014,86.60254037844386" fill="#102040" stroke="#a8acaf"></polygon></g><g class="gInit" id="ch0_hexa_0_1_-1_0" transform="translate(150,-86.60254037844386)"><polygon points="100,0 50.000000000000014,-86.60254037844386 -49.99999999999998,-86.60254037844388 -100,-1.2246467991473532e-14 -50.00000000000004,86.60254037844383 50.000000000000014,86.60254037844386" fill="#102040" stroke="#a8acaf"></polygon></g><g class="gInit" id="ch0_hexa_0_1_0_-1" transform="translate(150,86.60254037844386)"><polygon points="100,0 50.000000000000014,-86.60254037844386 -49.99999999999998,-86.60254037844388 -100,-1.2246467991473532e-14 -50.00000000000004,86.60254037844383 50.000000000000014,86.60254037844386" fill="#102040" stroke="#a8acaf"></polygon></g><g class="gInit" id="ch0_hexa_0_1_1_-2" transform="translate(150,259.8076211353316)"><polygon points="100,0 50.000000000000014,-86.60254037844386 -49.99999999999998,-86.60254037844388 -100,-1.2246467991473532e-14 -50.00000000000004,86.60254037844383 50.000000000000014,86.60254037844386" fill="#102040" stroke="#a8acaf"></polygon></g><g class="gInit" id="ch0_hexa_0_2_-2_0" transform="translate(300,-173.20508075688772)"><polygon points="100,0 50.000000000000014,-86.60254037844386 -49.99999999999998,-86.60254037844388 -100,-1.2246467991473532e-14 -50.00000000000004,86.60254037844383 50.000000000000014,86.60254037844386" fill="#102040" stroke="#a8acaf"></polygon></g><g class="gInit" id="ch0_hexa_0_2_-1_-1" transform="translate(300,0)"><polygon points="100,0 50.000000000000014,-86.60254037844386 -49.99999999999998,-86.60254037844388 -100,-1.2246467991473532e-14 -50.00000000000004,86.60254037844383 50.000000000000014,86.60254037844386" fill="#102040" stroke="#a8acaf"></polygon></g><g class="gInit" id="ch0_hexa_0_2_0_-2" transform="translate(300,173.20508075688772)"><polygon points="100,0 50.000000000000014,-86.60254037844386 -49.99999999999998,-86.60254037844388 -100,-1.2246467991473532e-14 -50.00000000000004,86.60254037844383 50.000000000000014,86.60254037844386" fill="#102040" stroke="#a8acaf"></polygon></g><g id="ch0_espace_428890" class="gEspace" style="cursor: grab;"><g id="ch0_espace_428890_79697_hexa_0" class="gHexa cpt79697" transform="translate(0,0)"><polygon points="100,0 50.000000000000014,-86.60254037844386 -49.99999999999998,-86.60254037844388 -100,-1.2246467991473532e-14 -50.00000000000004,86.60254037844383 50.000000000000014,86.60254037844386" fill="rgba(26, 199, 194, 0.1)" stroke="black" stroke-width="0.1" class="eHexaOut"></polygon><path class="inForme eForme depth1" fill="rgba(26, 199, 194, 0.1)" d="M0,0 m-86.60254037844386, 0 a86.60254037844386,86.60254037844386 0 1,0 173.20508075688772,0 a86.60254037844386,86.60254037844386 0 1,0 -173.20508075688772,0Z" stroke="black" stroke-width="0.1"></path><g class="gInit cpt79697" id="ch0_espace_428890_79697_hexa_0_2_-2_0_2" transform="translate(-60,-34.64101615137754)"><polygon points="20,0 10.000000000000002,-17.32050807568877 -9.999999999999996,-17.320508075688775 -20,-2.4492935982947065e-15 -10.000000000000009,17.320508075688767 10.000000000000002,17.32050807568877" fill="rgba(26, 199, 194, 0.1)" stroke="white" stroke-width="0.05" style="cursor: none;"></polygon></g><g class="gInit cpt79697" id="ch0_espace_428890_79697_hexa_0_2_-2_1_1" transform="translate(-60,0)"><polygon points="20,0 10.000000000000002,-17.32050807568877 -9.999999999999996,-17.320508075688775 -20,-2.4492935982947065e-15 -10.000000000000009,17.320508075688767 10.000000000000002,17.32050807568877" fill="rgba(26, 199, 194, 0.1)" stroke="white" stroke-width="0.05" style="cursor: none;"></polygon></g><g class="gInit cpt79697" id="ch0_espace_428890_79697_hexa_0_2_-2_2_0" transform="translate(-60,34.64101615137754)"><polygon points="20,0 10.000000000000002,-17.32050807568877 -9.999999999999996,-17.320508075688775 -20,-2.4492935982947065e-15 -10.000000000000009,17.320508075688767 10.000000000000002,17.32050807568877" fill="rgba(26, 199, 194, 0.1)" stroke="white" stroke-width="0.05" style="cursor: none;"></polygon></g><g class="gInit cpt79697" id="ch0_espace_428890_79697_hexa_0_2_-1_-1_2" transform="translate(-30,-51.96152422706632)"><polygon points="20,0 10.000000000000002,-17.32050807568877 -9.999999999999996,-17.320508075688775 -20,-2.4492935982947065e-15 -10.000000000000009,17.320508075688767 10.000000000000002,17.32050807568877" fill="rgba(26, 199, 194, 0.1)" stroke="white" stroke-width="0.05" style="cursor: none;"></polygon></g><g class="gInit cpt79697" id="ch0_espace_428890_79697_hexa_0_2_-1_0_1" transform="translate(-30,-17.32050807568877)"><polygon points="20,0 10.000000000000002,-17.32050807568877 -9.999999999999996,-17.320508075688775 -20,-2.4492935982947065e-15 -10.000000000000009,17.320508075688767 10.000000000000002,17.32050807568877" fill="rgba(26, 199, 194, 0.1)" stroke="white" stroke-width="0.05" style="cursor: zoom-in;"></polygon></g><g class="gInit cpt79697" id="ch0_espace_428890_79697_hexa_0_2_-1_1_0" transform="translate(-30,17.32050807568877)"><polygon points="20,0 10.000000000000002,-17.32050807568877 -9.999999999999996,-17.320508075688775 -20,-2.4492935982947065e-15 -10.000000000000009,17.320508075688767 10.000000000000002,17.32050807568877" fill="rgba(26, 199, 194, 0.1)" stroke="white" stroke-width="0.05" style="cursor: zoom-in;"></polygon></g><g class="gInit cpt79697" id="ch0_espace_428890_79697_hexa_0_2_-1_2_-1" transform="translate(-30,51.96152422706632)"><polygon points="20,0 10.000000000000002,-17.32050807568877 -9.999999999999996,-17.320508075688775 -20,-2.4492935982947065e-15 -10.000000000000009,17.320508075688767 10.000000000000002,17.32050807568877" fill="rgba(26, 199, 194, 0.1)" stroke="white" stroke-width="0.05" style="cursor: none;"></polygon></g><g class="gInit cpt79697" id="ch0_espace_428890_79697_hexa_0_2_0_-2_2" transform="translate(0,-69.28203230275508)"><polygon points="20,0 10.000000000000002,-17.32050807568877 -9.999999999999996,-17.320508075688775 -20,-2.4492935982947065e-15 -10.000000000000009,17.320508075688767 10.000000000000002,17.32050807568877" fill="rgba(26, 199, 194, 0.1)" stroke="white" stroke-width="0.05" style="cursor: none;"></polygon></g><g class="gInit cpt79697" id="ch0_espace_428890_79697_hexa_0_2_0_-1_1" transform="translate(0,-34.64101615137754)"><polygon points="20,0 10.000000000000002,-17.32050807568877 -9.999999999999996,-17.320508075688775 -20,-2.4492935982947065e-15 -10.000000000000009,17.320508075688767 10.000000000000002,17.32050807568877" fill="rgba(26, 199, 194, 0.1)" stroke="white" stroke-width="0.05" style="cursor: zoom-in;"></polygon></g><g class="gInit cpt79697" id="ch0_espace_428890_79697_hexa_0_2_0_0_0" transform="translate(0,0)"><polygon points="20,0 10.000000000000002,-17.32050807568877 -9.999999999999996,-17.320508075688775 -20,-2.4492935982947065e-15 -10.000000000000009,17.320508075688767 10.000000000000002,17.32050807568877" fill="rgba(26, 199, 194, 0.1)" stroke="white" stroke-width="0.05" style="cursor: pointer;"></polygon></g><g class="gInit cpt79697" id="ch0_espace_428890_79697_hexa_0_2_0_1_-1" transform="translate(0,34.64101615137754)"><polygon points="20,0 10.000000000000002,-17.32050807568877 -9.999999999999996,-17.320508075688775 -20,-2.4492935982947065e-15 -10.000000000000009,17.320508075688767 10.000000000000002,17.32050807568877" fill="rgba(26, 199, 194, 0.1)" stroke="white" stroke-width="0.05" style="cursor: zoom-in;"></polygon></g><g class="gInit cpt79697" id="ch0_espace_428890_79697_hexa_0_2_0_2_-2" transform="translate(0,69.28203230275508)"><polygon points="20,0 10.000000000000002,-17.32050807568877 -9.999999999999996,-17.320508075688775 -20,-2.4492935982947065e-15 -10.000000000000009,17.320508075688767 10.000000000000002,17.32050807568877" fill="rgba(26, 199, 194, 0.1)" stroke="white" stroke-width="0.05" style="cursor: none;"></polygon></g><g class="gInit cpt79697" id="ch0_espace_428890_79697_hexa_0_2_1_-2_1" transform="translate(30,-51.96152422706632)"><polygon points="20,0 10.000000000000002,-17.32050807568877 -9.999999999999996,-17.320508075688775 -20,-2.4492935982947065e-15 -10.000000000000009,17.320508075688767 10.000000000000002,17.32050807568877" fill="rgba(26, 199, 194, 0.1)" stroke="white" stroke-width="0.05" style="cursor: none;"></polygon></g><g class="gInit cpt79697" id="ch0_espace_428890_79697_hexa_0_2_1_-1_0" transform="translate(30,-17.32050807568877)"><polygon points="20,0 10.000000000000002,-17.32050807568877 -9.999999999999996,-17.320508075688775 -20,-2.4492935982947065e-15 -10.000000000000009,17.320508075688767 10.000000000000002,17.32050807568877" fill="rgba(26, 199, 194, 0.1)" stroke="white" stroke-width="0.05" style="cursor: zoom-in;"></polygon></g><g class="gInit cpt79697" id="ch0_espace_428890_79697_hexa_0_2_1_0_-1" transform="translate(30,17.32050807568877)"><polygon points="20,0 10.000000000000002,-17.32050807568877 -9.999999999999996,-17.320508075688775 -20,-2.4492935982947065e-15 -10.000000000000009,17.320508075688767 10.000000000000002,17.32050807568877" fill="rgba(26, 199, 194, 0.1)" stroke="white" stroke-width="0.05" style="cursor: zoom-in;"></polygon></g><g class="gInit cpt79697" id="ch0_espace_428890_79697_hexa_0_2_1_1_-2" transform="translate(30,51.96152422706632)"><polygon points="20,0 10.000000000000002,-17.32050807568877 -9.999999999999996,-17.320508075688775 -20,-2.4492935982947065e-15 -10.000000000000009,17.320508075688767 10.000000000000002,17.32050807568877" fill="rgba(26, 199, 194, 0.1)" stroke="white" stroke-width="0.05" style="cursor: none;"></polygon></g><g class="gInit cpt79697" id="ch0_espace_428890_79697_hexa_0_2_2_-2_0" transform="translate(60,-34.64101615137754)"><polygon points="20,0 10.000000000000002,-17.32050807568877 -9.999999999999996,-17.320508075688775 -20,-2.4492935982947065e-15 -10.000000000000009,17.320508075688767 10.000000000000002,17.32050807568877" fill="rgba(26, 199, 194, 0.1)" stroke="white" stroke-width="0.05" style="cursor: none;"></polygon></g><g class="gInit cpt79697" id="ch0_espace_428890_79697_hexa_0_2_2_-1_-1" transform="translate(60,0)"><polygon points="20,0 10.000000000000002,-17.32050807568877 -9.999999999999996,-17.320508075688775 -20,-2.4492935982947065e-15 -10.000000000000009,17.320508075688767 10.000000000000002,17.32050807568877" fill="rgba(26, 199, 194, 0.1)" stroke="white" stroke-width="0.05" style="cursor: none;"></polygon></g><g class="gInit cpt79697" id="ch0_espace_428890_79697_hexa_0_2_2_0_-2" transform="translate(60,34.64101615137754)"><polygon points="20,0 10.000000000000002,-17.32050807568877 -9.999999999999996,-17.320508075688775 -20,-2.4492935982947065e-15 -10.000000000000009,17.320508075688767 10.000000000000002,17.32050807568877" fill="rgba(26, 199, 194, 0.1)" stroke="white" stroke-width="0.05" style="cursor: none;"></polygon></g><path id="ch0_espace_428890_79697_hexa_0_bord" class="bordForme eForme depth1" fill="none" stroke="rgba(26, 199, 194, 0.6)" d="M76.60254037844386,0C76.60254037844386,-42.28460228890101,42.28460228890101,-76.60254037844386,0,-76.60254037844386M76.60254037844386,0C76.60254037844386,42.28460228890101,42.28460228890101,76.60254037844386,0,76.60254037844386M-76.60254037844386,0C-76.60254037844386,42.28460228890101,-42.28460228890101,76.60254037844386,0,76.60254037844386M-76.60254037844386,0C-76.60254037844386,-42.28460228890101,-42.28460228890101,-76.60254037844386,0,-76.60254037844386" stroke-linecap="round" stroke-width="20"></path><text id="eTextch0_espace_428890_79697" class="eText" text-anchor="middle" alignment-baseline="middle" font-size="0.6569953846991509em" transform="scale(10)" fill="white" style="cursor: help;">vide</text></g></g></svg>