<?xml version="1.0" encoding="UTF-8" standalone="no"?>
<svg
   id="svgCartoHexach0"
   width="548.24866"
   height="489.62988"
   version="1.1"
   sodipodi:docname="actants.svg"
   inkscape:version="1.3 (0e150ed, 2023-07-21)"
   xmlns:inkscape="http://www.inkscape.org/namespaces/inkscape"
   xmlns:sodipodi="http://sodipodi.sourceforge.net/DTD/sodipodi-0.dtd"
   xmlns="http://www.w3.org/2000/svg"
   xmlns:svg="http://www.w3.org/2000/svg">
  <defs
     id="defs39" />
  <sodipodi:namedview
     id="namedview39"
     pagecolor="#ffffff"
     bordercolor="#000000"
     borderopacity="0.25"
     inkscape:showpageshadow="2"
     inkscape:pageopacity="0.0"
     inkscape:pagecheckerboard="0"
     inkscape:deskcolor="#d1d1d1"
     inkscape:zoom="29.234631"
     inkscape:cx="235.7136"
     inkscape:cy="349.70512"
     inkscape:window-width="1728"
     inkscape:window-height="966"
     inkscape:window-x="0"
     inkscape:window-y="38"
     inkscape:window-maximized="1"
     inkscape:current-layer="svgCartoHexach0" />
  <g
     class="gInit"
     id="ch0_hexa_0_-1_-1_2"
     transform="matrix(0.74247245,0,0,0.74247245,162.54456,128.97205)"
     style="fill:none;stroke:#000000;stroke-opacity:1">
    <polygon
       points="-50,-86.60254 -100,-1.2246468e-14 -50,86.60254 50,86.60254 100,0 50,-86.60254 "
       fill="#102040"
       stroke="#a8acaf"
       id="polygon4"
       style="fill:none;stroke:#000000;stroke-opacity:1" />
  </g>
  <g
     class="gInit"
     id="ch0_hexa_0_-1_0_1"
     transform="matrix(0.74247245,0,0,0.74247245,162.54456,257.57205)"
     style="fill:none;stroke:#000000;stroke-opacity:1">
    <polygon
       points="-50,-86.60254 -100,-1.2246468e-14 -50,86.60254 50,86.60254 100,0 50,-86.60254 "
       fill="#102040"
       stroke="#a8acaf"
       id="polygon5"
       style="fill:none;stroke:#000000;stroke-opacity:1" />
  </g>
  <g
     class="gInit"
     id="ch0_hexa_0_0_-2_2"
     transform="matrix(2.2251574,0,0,2.2245334,273.91543,193.76251)"
     style="fill:none;stroke:#000000;stroke-opacity:1">
    <polygon
       points="100,0 50,-86.60254 -50,-86.60254 -100,-1.2246468e-14 -50,86.60254 50,86.60254 "
       fill="#102040"
       stroke="#a8acaf"
       id="polygon8"
       style="fill:none;stroke:#000000;stroke-opacity:1" />
  </g>
  <g
     class="gInit"
     id="ch0_hexa_0_1_-2_1"
     transform="matrix(0.74247245,0,0,0.74247245,385.2863,128.97205)"
     style="fill:none;stroke:#000000;stroke-opacity:1">
    <polygon
       points="-50,-86.60254 -100,-1.2246468e-14 -50,86.60254 50,86.60254 100,0 50,-86.60254 "
       fill="#102040"
       stroke="#a8acaf"
       id="polygon13"
       style="fill:none;stroke:#000000;stroke-opacity:1" />
  </g>
  <ellipse
     style="fill:none;stroke:#000000;stroke-width:2.18668;stroke-opacity:1"
     id="ellipse63"
     ry="186.19894"
     rx="273.03098"
     cy="302.33759"
     cx="274.12433"
     inkscape:export-filename="actantP8.svg"
     inkscape:export-xdpi="96"
     inkscape:export-ydpi="96" />
  <g
     class="gInit"
     id="ch0_hexa_0_2_-2_0"
     transform="matrix(2.2251574,0,0,2.2245334,273.91543,193.76251)"
     style="fill:#ffffff;fill-opacity:1;stroke:#000000;stroke-opacity:1">
    <polygon
       points="-100,-1.2246468e-14 -50,86.60254 50,86.60254 100,0 50,-86.60254 -50,-86.60254 "
       fill="#102040"
       stroke="#a8acaf"
       id="polygon17"
       style="fill:#ffffff;fill-opacity:1;stroke:#000000;stroke-opacity:1" />
  </g>
  <g
     class="gInit"
     id="ch0_hexa_0_1_-1_0"
     transform="matrix(0.74247245,0,0,0.74247245,385.2863,257.57205)"
     style="fill:none;stroke:#000000;stroke-opacity:1">
    <polygon
       points="-50,-86.60254 -100,-1.2246468e-14 -50,86.60254 50,86.60254 100,0 50,-86.60254 "
       fill="#102040"
       stroke="#a8acaf"
       id="polygon14"
       style="fill:none;stroke:#000000;stroke-opacity:1" />
  </g>
  <text
     xml:space="preserve"
     style="font-family:Garamond;-inkscape-font-specification:Garamond;fill:#000000;fill-opacity:1;stroke:none;stroke-opacity:1"
     x="229.73573"
     y="197.34431"
     id="text41"><tspan
       sodipodi:role="line"
       id="tspan41"
       x="229.73573"
       y="197.34431">Université  Paris 8</tspan></text>
  <g
     id="g42"
     transform="translate(38.217701,-27.839771)">
    <g
       class="gOccupe"
       id="ch0_hexa_0_0_0_0"
       transform="matrix(0.74247245,0,0,0.74247245,235.69773,349.71182)"
       style="fill:none;stroke:#000000;stroke-opacity:1">
      <polygon
         points="-50,-86.60254 -100,-1.2246468e-14 -50,86.60254 50,86.60254 100,0 50,-86.60254 "
         fill="#102040"
         stroke="#a8acaf"
         id="polygon10"
         style="fill:none;stroke:#000000;stroke-opacity:1" />
    </g>
    <polygon
       points="100,0 50,-86.60254 -50,-86.60254 -100,-1.2246468e-14 -50,86.60254 50,86.60254 "
       fill="rgba(26, 199, 194, 0.1)"
       stroke="#000000"
       stroke-width="0.1"
       class="eHexaOut"
       id="polygon20"
       style="fill:none;stroke:#000000;stroke-opacity:1"
       transform="matrix(0.74247245,0,0,0.74247245,235.69773,349.71182)" />
    <g
       class="gInit cpt79697"
       id="ch0_espace_422811_79697_hexa_0_2_-2_0_2"
       transform="matrix(0.74247245,0,0,0.74247245,191.14938,323.99182)"
       style="fill:none;stroke:#000000;stroke-opacity:1">
      <polygon
         points="20,0 10,-17.320508 -10,-17.320508 -20,-2.4492936e-15 -10,17.320508 10,17.320508 "
         fill="rgba(26, 199, 194, 0.1)"
         stroke="#ffffff"
         stroke-width="0.05"
         id="polygon21"
         style="fill:none;stroke:#000000;stroke-opacity:1" />
    </g>
    <g
       class="gInit cpt79697"
       id="ch0_espace_422811_79697_hexa_0_2_-2_1_1"
       transform="matrix(0.74247245,0,0,0.74247245,191.14938,349.71182)"
       style="fill:none;stroke:#000000;stroke-opacity:1">
      <polygon
         points="20,0 10,-17.320508 -10,-17.320508 -20,-2.4492936e-15 -10,17.320508 10,17.320508 "
         fill="rgba(26, 199, 194, 0.1)"
         stroke="#ffffff"
         stroke-width="0.05"
         id="polygon22"
         style="fill:none;stroke:#000000;stroke-opacity:1" />
    </g>
    <g
       class="gInit cpt79697"
       id="ch0_espace_422811_79697_hexa_0_2_-2_2_0"
       transform="matrix(0.74247245,0,0,0.74247245,191.14938,375.43182)"
       style="fill:none;stroke:#000000;stroke-opacity:1">
      <polygon
         points="20,0 10,-17.320508 -10,-17.320508 -20,-2.4492936e-15 -10,17.320508 10,17.320508 "
         fill="rgba(26, 199, 194, 0.1)"
         stroke="#ffffff"
         stroke-width="0.05"
         id="polygon23"
         style="fill:none;stroke:#000000;stroke-opacity:1" />
    </g>
    <g
       class="gInit cpt79697"
       id="ch0_espace_422811_79697_hexa_0_2_-1_-1_2"
       transform="matrix(0.74247245,0,0,0.74247245,213.42356,311.13182)"
       style="fill:none;stroke:#000000;stroke-opacity:1">
      <polygon
         points="20,0 10,-17.320508 -10,-17.320508 -20,-2.4492936e-15 -10,17.320508 10,17.320508 "
         fill="rgba(26, 199, 194, 0.1)"
         stroke="#ffffff"
         stroke-width="0.05"
         id="polygon24"
         style="fill:none;stroke:#000000;stroke-opacity:1" />
    </g>
    <g
       class="gInit cpt79697"
       id="ch0_espace_422811_79697_hexa_0_2_-1_0_1"
       transform="matrix(0.74247245,0,0,0.74247245,213.42356,336.85182)"
       style="fill:none;stroke:#000000;stroke-opacity:1">
      <polygon
         points="20,0 10,-17.320508 -10,-17.320508 -20,-2.4492936e-15 -10,17.320508 10,17.320508 "
         fill="rgba(26, 199, 194, 0.1)"
         stroke="#ffffff"
         stroke-width="0.05"
         id="polygon25"
         style="fill:none;stroke:#000000;stroke-opacity:1" />
    </g>
    <g
       class="gInit cpt79697"
       id="ch0_espace_422811_79697_hexa_0_2_-1_1_0"
       transform="matrix(0.74247245,0,0,0.74247245,213.42356,362.57182)"
       style="fill:none;stroke:#000000;stroke-opacity:1">
      <polygon
         points="20,0 10,-17.320508 -10,-17.320508 -20,-2.4492936e-15 -10,17.320508 10,17.320508 "
         fill="rgba(26, 199, 194, 0.1)"
         stroke="#ffffff"
         stroke-width="0.05"
         id="polygon26"
         style="fill:none;stroke:#000000;stroke-opacity:1" />
    </g>
    <g
       class="gInit cpt79697"
       id="ch0_espace_422811_79697_hexa_0_2_-1_2_-1"
       transform="matrix(0.74247245,0,0,0.74247245,213.42356,388.29182)"
       style="fill:none;stroke:#000000;stroke-opacity:1">
      <polygon
         points="20,0 10,-17.320508 -10,-17.320508 -20,-2.4492936e-15 -10,17.320508 10,17.320508 "
         fill="rgba(26, 199, 194, 0.1)"
         stroke="#ffffff"
         stroke-width="0.05"
         id="polygon27"
         style="fill:none;stroke:#000000;stroke-opacity:1" />
    </g>
    <g
       class="gInit cpt79697"
       id="ch0_espace_422811_79697_hexa_0_2_0_-2_2"
       transform="matrix(0.74247245,0,0,0.74247245,235.69773,298.27182)"
       style="fill:none;stroke:#000000;stroke-opacity:1">
      <polygon
         points="20,0 10,-17.320508 -10,-17.320508 -20,-2.4492936e-15 -10,17.320508 10,17.320508 "
         fill="rgba(26, 199, 194, 0.1)"
         stroke="#ffffff"
         stroke-width="0.05"
         id="polygon28"
         style="fill:none;stroke:#000000;stroke-opacity:1" />
    </g>
    <g
       class="gInit cpt79697"
       id="ch0_espace_422811_79697_hexa_0_2_0_-1_1"
       transform="matrix(0.74247245,0,0,0.74247245,235.69773,323.99182)"
       style="fill:none;stroke:#000000;stroke-opacity:1">
      <polygon
         points="20,0 10,-17.320508 -10,-17.320508 -20,-2.4492936e-15 -10,17.320508 10,17.320508 "
         fill="rgba(26, 199, 194, 0.1)"
         stroke="#ffffff"
         stroke-width="0.05"
         id="polygon29"
         style="fill:none;stroke:#000000;stroke-opacity:1" />
    </g>
    <g
       class="gInit cpt79697"
       id="ch0_espace_422811_79697_hexa_0_2_0_0_0"
       style="fill:none;stroke:#000000;stroke-opacity:1"
       transform="matrix(0.74247245,0,0,0.74247245,235.69773,349.71182)">
      <polygon
         points="20,0 10,-17.320508 -10,-17.320508 -20,-2.4492936e-15 -10,17.320508 10,17.320508 "
         fill="rgba(26, 199, 194, 0.1)"
         stroke="#ffffff"
         stroke-width="0.05"
         id="polygon30"
         style="fill:none;stroke:#000000;stroke-opacity:1" />
    </g>
    <g
       class="gInit cpt79697"
       id="ch0_espace_422811_79697_hexa_0_2_0_1_-1"
       transform="matrix(0.74247245,0,0,0.74247245,235.69773,375.43182)"
       style="fill:none;stroke:#000000;stroke-opacity:1">
      <polygon
         points="20,0 10,-17.320508 -10,-17.320508 -20,-2.4492936e-15 -10,17.320508 10,17.320508 "
         fill="rgba(26, 199, 194, 0.1)"
         stroke="#ffffff"
         stroke-width="0.05"
         id="polygon31"
         style="fill:none;stroke:#000000;stroke-opacity:1" />
    </g>
    <g
       class="gInit cpt79697"
       id="ch0_espace_422811_79697_hexa_0_2_0_2_-2"
       transform="matrix(0.74247245,0,0,0.74247245,235.69773,401.15182)"
       style="fill:none;stroke:#000000;stroke-opacity:1">
      <polygon
         points="20,0 10,-17.320508 -10,-17.320508 -20,-2.4492936e-15 -10,17.320508 10,17.320508 "
         fill="rgba(26, 199, 194, 0.1)"
         stroke="#ffffff"
         stroke-width="0.05"
         id="polygon32"
         style="fill:none;stroke:#000000;stroke-opacity:1" />
    </g>
    <g
       class="gInit cpt79697"
       id="ch0_espace_422811_79697_hexa_0_2_1_-2_1"
       transform="matrix(0.74247245,0,0,0.74247245,257.9719,311.13182)"
       style="fill:none;stroke:#000000;stroke-opacity:1">
      <polygon
         points="20,0 10,-17.320508 -10,-17.320508 -20,-2.4492936e-15 -10,17.320508 10,17.320508 "
         fill="rgba(26, 199, 194, 0.1)"
         stroke="#ffffff"
         stroke-width="0.05"
         id="polygon33"
         style="fill:none;stroke:#000000;stroke-opacity:1" />
    </g>
    <g
       class="gInit cpt79697"
       id="ch0_espace_422811_79697_hexa_0_2_1_-1_0"
       transform="matrix(0.74247245,0,0,0.74247245,257.9719,336.85182)"
       style="fill:none;stroke:#000000;stroke-opacity:1">
      <polygon
         points="20,0 10,-17.320508 -10,-17.320508 -20,-2.4492936e-15 -10,17.320508 10,17.320508 "
         fill="rgba(26, 199, 194, 0.1)"
         stroke="#ffffff"
         stroke-width="0.05"
         id="polygon34"
         style="fill:none;stroke:#000000;stroke-opacity:1" />
    </g>
    <g
       class="gInit cpt79697"
       id="ch0_espace_422811_79697_hexa_0_2_1_0_-1"
       transform="matrix(0.74247245,0,0,0.74247245,257.9719,362.57182)"
       style="fill:none;stroke:#000000;stroke-opacity:1">
      <polygon
         points="20,0 10,-17.320508 -10,-17.320508 -20,-2.4492936e-15 -10,17.320508 10,17.320508 "
         fill="rgba(26, 199, 194, 0.1)"
         stroke="#ffffff"
         stroke-width="0.05"
         id="polygon35"
         style="fill:none;stroke:#000000;stroke-opacity:1" />
    </g>
    <g
       class="gInit cpt79697"
       id="ch0_espace_422811_79697_hexa_0_2_1_1_-2"
       transform="matrix(0.74247245,0,0,0.74247245,257.9719,388.29182)"
       style="fill:none;stroke:#000000;stroke-opacity:1">
      <polygon
         points="20,0 10,-17.320508 -10,-17.320508 -20,-2.4492936e-15 -10,17.320508 10,17.320508 "
         fill="rgba(26, 199, 194, 0.1)"
         stroke="#ffffff"
         stroke-width="0.05"
         id="polygon36"
         style="fill:none;stroke:#000000;stroke-opacity:1" />
    </g>
    <g
       class="gInit cpt79697"
       id="ch0_espace_422811_79697_hexa_0_2_2_-2_0"
       transform="matrix(0.74247245,0,0,0.74247245,280.24608,323.99182)"
       style="fill:none;stroke:#000000;stroke-opacity:1">
      <polygon
         points="20,0 10,-17.320508 -10,-17.320508 -20,-2.4492936e-15 -10,17.320508 10,17.320508 "
         fill="rgba(26, 199, 194, 0.1)"
         stroke="#ffffff"
         stroke-width="0.05"
         id="polygon37"
         style="fill:none;stroke:#000000;stroke-opacity:1" />
    </g>
    <g
       class="gInit cpt79697"
       id="ch0_espace_422811_79697_hexa_0_2_2_-1_-1"
       transform="matrix(0.74247245,0,0,0.74247245,280.24608,349.71182)"
       style="fill:none;stroke:#000000;stroke-opacity:1">
      <polygon
         points="20,0 10,-17.320508 -10,-17.320508 -20,-2.4492936e-15 -10,17.320508 10,17.320508 "
         fill="rgba(26, 199, 194, 0.1)"
         stroke="#ffffff"
         stroke-width="0.05"
         id="polygon38"
         style="fill:none;stroke:#000000;stroke-opacity:1" />
    </g>
    <g
       class="gInit cpt79697"
       id="ch0_espace_422811_79697_hexa_0_2_2_0_-2"
       transform="matrix(0.74247245,0,0,0.74247245,280.24608,375.43182)"
       style="fill:none;stroke:#000000;stroke-opacity:1">
      <polygon
         points="20,0 10,-17.320508 -10,-17.320508 -20,-2.4492936e-15 -10,17.320508 10,17.320508 "
         fill="rgba(26, 199, 194, 0.1)"
         stroke="#ffffff"
         stroke-width="0.05"
         id="polygon39"
         style="fill:none;stroke:#000000;stroke-opacity:1" />
    </g>
    <text
       xml:space="preserve"
       style="font-family:Garamond;-inkscape-font-specification:Garamond;fill:#000000;fill-opacity:1;stroke:none;stroke-opacity:1"
       x="223.94089"
       y="353.59073"
       id="text42"><tspan
         sodipodi:role="line"
         id="tspan42"
         x="223.94089"
         y="353.59073">UFR</tspan></text>
  </g>
  <g
     class="gOccupe"
     id="g43"
     transform="matrix(0.74247245,0,0,0.74247245,385.51753,257.98947)"
     style="fill:none;stroke:#000000;stroke-opacity:1">
    <polygon
       points="50,86.60254 100,0 50,-86.60254 -50,-86.60254 -100,-1.2246468e-14 -50,86.60254 "
       fill="#102040"
       stroke="#a8acaf"
       id="polygon42"
       style="fill:none;stroke:#000000;stroke-opacity:1" />
  </g>
  <polygon
     points="-100,-1.2246468e-14 -50,86.60254 50,86.60254 100,0 50,-86.60254 -50,-86.60254 "
     fill="rgba(26, 199, 194, 0.1)"
     stroke="#000000"
     stroke-width="0.1"
     class="eHexaOut"
     id="polygon43"
     style="fill:none;stroke:#000000;stroke-opacity:1"
     transform="matrix(0.74247245,0,0,0.74247245,385.51753,257.98947)" />
  <g
     class="gInit cpt79697"
     id="g44"
     transform="matrix(0.74247245,0,0,0.74247245,340.96918,232.26947)"
     style="fill:none;stroke:#000000;stroke-opacity:1">
    <polygon
       points="-20,-2.4492936e-15 -10,17.320508 10,17.320508 20,0 10,-17.320508 -10,-17.320508 "
       fill="rgba(26, 199, 194, 0.1)"
       stroke="#ffffff"
       stroke-width="0.05"
       id="polygon44"
       style="fill:none;stroke:#000000;stroke-opacity:1" />
  </g>
  <g
     class="gInit cpt79697"
     id="g45"
     transform="matrix(0.74247245,0,0,0.74247245,340.96918,257.98947)"
     style="fill:none;stroke:#000000;stroke-opacity:1">
    <polygon
       points="-20,-2.4492936e-15 -10,17.320508 10,17.320508 20,0 10,-17.320508 -10,-17.320508 "
       fill="rgba(26, 199, 194, 0.1)"
       stroke="#ffffff"
       stroke-width="0.05"
       id="polygon45"
       style="fill:none;stroke:#000000;stroke-opacity:1" />
  </g>
  <g
     class="gInit cpt79697"
     id="g46"
     transform="matrix(0.74247245,0,0,0.74247245,340.96918,283.70947)"
     style="fill:none;stroke:#000000;stroke-opacity:1">
    <polygon
       points="-20,-2.4492936e-15 -10,17.320508 10,17.320508 20,0 10,-17.320508 -10,-17.320508 "
       fill="rgba(26, 199, 194, 0.1)"
       stroke="#ffffff"
       stroke-width="0.05"
       id="polygon46"
       style="fill:none;stroke:#000000;stroke-opacity:1" />
  </g>
  <g
     class="gInit cpt79697"
     id="g47"
     transform="matrix(0.74247245,0,0,0.74247245,363.24336,219.40947)"
     style="fill:none;stroke:#000000;stroke-opacity:1">
    <polygon
       points="-20,-2.4492936e-15 -10,17.320508 10,17.320508 20,0 10,-17.320508 -10,-17.320508 "
       fill="rgba(26, 199, 194, 0.1)"
       stroke="#ffffff"
       stroke-width="0.05"
       id="polygon47"
       style="fill:none;stroke:#000000;stroke-opacity:1" />
  </g>
  <g
     class="gInit cpt79697"
     id="g48"
     transform="matrix(0.74247245,0,0,0.74247245,363.24336,245.12947)"
     style="fill:none;stroke:#000000;stroke-opacity:1">
    <polygon
       points="-20,-2.4492936e-15 -10,17.320508 10,17.320508 20,0 10,-17.320508 -10,-17.320508 "
       fill="rgba(26, 199, 194, 0.1)"
       stroke="#ffffff"
       stroke-width="0.05"
       id="polygon48"
       style="fill:none;stroke:#000000;stroke-opacity:1" />
  </g>
  <g
     class="gInit cpt79697"
     id="g49"
     transform="matrix(0.74247245,0,0,0.74247245,363.24336,270.84947)"
     style="fill:none;stroke:#000000;stroke-opacity:1">
    <polygon
       points="-20,-2.4492936e-15 -10,17.320508 10,17.320508 20,0 10,-17.320508 -10,-17.320508 "
       fill="rgba(26, 199, 194, 0.1)"
       stroke="#ffffff"
       stroke-width="0.05"
       id="polygon49"
       style="fill:none;stroke:#000000;stroke-opacity:1" />
  </g>
  <g
     class="gInit cpt79697"
     id="g50"
     transform="matrix(0.74247245,0,0,0.74247245,363.24336,296.56947)"
     style="fill:none;stroke:#000000;stroke-opacity:1">
    <polygon
       points="-20,-2.4492936e-15 -10,17.320508 10,17.320508 20,0 10,-17.320508 -10,-17.320508 "
       fill="rgba(26, 199, 194, 0.1)"
       stroke="#ffffff"
       stroke-width="0.05"
       id="polygon50"
       style="fill:none;stroke:#000000;stroke-opacity:1" />
  </g>
  <g
     class="gInit cpt79697"
     id="g51"
     transform="matrix(0.74247245,0,0,0.74247245,385.51753,206.54947)"
     style="fill:none;stroke:#000000;stroke-opacity:1">
    <polygon
       points="-20,-2.4492936e-15 -10,17.320508 10,17.320508 20,0 10,-17.320508 -10,-17.320508 "
       fill="rgba(26, 199, 194, 0.1)"
       stroke="#ffffff"
       stroke-width="0.05"
       id="polygon51"
       style="fill:none;stroke:#000000;stroke-opacity:1" />
  </g>
  <g
     class="gInit cpt79697"
     id="g52"
     transform="matrix(0.74247245,0,0,0.74247245,385.51753,232.26947)"
     style="fill:none;stroke:#000000;stroke-opacity:1">
    <polygon
       points="-20,-2.4492936e-15 -10,17.320508 10,17.320508 20,0 10,-17.320508 -10,-17.320508 "
       fill="rgba(26, 199, 194, 0.1)"
       stroke="#ffffff"
       stroke-width="0.05"
       id="polygon52"
       style="fill:none;stroke:#000000;stroke-opacity:1" />
  </g>
  <g
     class="gInit cpt79697"
     id="g53"
     style="fill:none;stroke:#000000;stroke-opacity:1"
     transform="matrix(0.74247245,0,0,0.74247245,385.51753,257.98947)">
    <polygon
       points="-20,-2.4492936e-15 -10,17.320508 10,17.320508 20,0 10,-17.320508 -10,-17.320508 "
       fill="rgba(26, 199, 194, 0.1)"
       stroke="#ffffff"
       stroke-width="0.05"
       id="polygon53"
       style="fill:none;stroke:#000000;stroke-opacity:1" />
  </g>
  <g
     class="gInit cpt79697"
     id="g54"
     transform="matrix(0.74247245,0,0,0.74247245,385.51753,283.70947)"
     style="fill:none;stroke:#000000;stroke-opacity:1">
    <polygon
       points="-20,-2.4492936e-15 -10,17.320508 10,17.320508 20,0 10,-17.320508 -10,-17.320508 "
       fill="rgba(26, 199, 194, 0.1)"
       stroke="#ffffff"
       stroke-width="0.05"
       id="polygon54"
       style="fill:none;stroke:#000000;stroke-opacity:1" />
  </g>
  <g
     class="gInit cpt79697"
     id="g55"
     transform="matrix(0.74247245,0,0,0.74247245,385.51753,309.42947)"
     style="fill:none;stroke:#000000;stroke-opacity:1">
    <polygon
       points="-20,-2.4492936e-15 -10,17.320508 10,17.320508 20,0 10,-17.320508 -10,-17.320508 "
       fill="rgba(26, 199, 194, 0.1)"
       stroke="#ffffff"
       stroke-width="0.05"
       id="polygon55"
       style="fill:none;stroke:#000000;stroke-opacity:1" />
  </g>
  <g
     class="gInit cpt79697"
     id="g56"
     transform="matrix(0.74247245,0,0,0.74247245,407.7917,219.40947)"
     style="fill:none;stroke:#000000;stroke-opacity:1">
    <polygon
       points="-20,-2.4492936e-15 -10,17.320508 10,17.320508 20,0 10,-17.320508 -10,-17.320508 "
       fill="rgba(26, 199, 194, 0.1)"
       stroke="#ffffff"
       stroke-width="0.05"
       id="polygon56"
       style="fill:none;stroke:#000000;stroke-opacity:1" />
  </g>
  <g
     class="gInit cpt79697"
     id="g57"
     transform="matrix(0.74247245,0,0,0.74247245,407.7917,245.12947)"
     style="fill:none;stroke:#000000;stroke-opacity:1">
    <polygon
       points="-20,-2.4492936e-15 -10,17.320508 10,17.320508 20,0 10,-17.320508 -10,-17.320508 "
       fill="rgba(26, 199, 194, 0.1)"
       stroke="#ffffff"
       stroke-width="0.05"
       id="polygon57"
       style="fill:none;stroke:#000000;stroke-opacity:1" />
  </g>
  <g
     class="gInit cpt79697"
     id="g58"
     transform="matrix(0.74247245,0,0,0.74247245,407.7917,270.84947)"
     style="fill:none;stroke:#000000;stroke-opacity:1">
    <polygon
       points="-20,-2.4492936e-15 -10,17.320508 10,17.320508 20,0 10,-17.320508 -10,-17.320508 "
       fill="rgba(26, 199, 194, 0.1)"
       stroke="#ffffff"
       stroke-width="0.05"
       id="polygon58"
       style="fill:none;stroke:#000000;stroke-opacity:1" />
  </g>
  <g
     class="gInit cpt79697"
     id="g59"
     transform="matrix(0.74247245,0,0,0.74247245,407.7917,296.56947)"
     style="fill:none;stroke:#000000;stroke-opacity:1">
    <polygon
       points="-20,-2.4492936e-15 -10,17.320508 10,17.320508 20,0 10,-17.320508 -10,-17.320508 "
       fill="rgba(26, 199, 194, 0.1)"
       stroke="#ffffff"
       stroke-width="0.05"
       id="polygon59"
       style="fill:none;stroke:#000000;stroke-opacity:1" />
  </g>
  <g
     class="gInit cpt79697"
     id="g60"
     transform="matrix(0.74247245,0,0,0.74247245,430.06588,232.26947)"
     style="fill:none;stroke:#000000;stroke-opacity:1">
    <polygon
       points="-20,-2.4492936e-15 -10,17.320508 10,17.320508 20,0 10,-17.320508 -10,-17.320508 "
       fill="rgba(26, 199, 194, 0.1)"
       stroke="#ffffff"
       stroke-width="0.05"
       id="polygon60"
       style="fill:none;stroke:#000000;stroke-opacity:1" />
  </g>
  <g
     class="gInit cpt79697"
     id="g61"
     transform="matrix(0.74247245,0,0,0.74247245,430.06588,257.98947)"
     style="fill:none;stroke:#000000;stroke-opacity:1">
    <polygon
       points="-20,-2.4492936e-15 -10,17.320508 10,17.320508 20,0 10,-17.320508 -10,-17.320508 "
       fill="rgba(26, 199, 194, 0.1)"
       stroke="#ffffff"
       stroke-width="0.05"
       id="polygon61"
       style="fill:none;stroke:#000000;stroke-opacity:1" />
  </g>
  <g
     class="gInit cpt79697"
     id="g62"
     transform="matrix(0.74247245,0,0,0.74247245,430.06588,283.70947)"
     style="fill:none;stroke:#000000;stroke-opacity:1">
    <polygon
       points="-20,-2.4492936e-15 -10,17.320508 10,17.320508 20,0 10,-17.320508 -10,-17.320508 "
       fill="rgba(26, 199, 194, 0.1)"
       stroke="#ffffff"
       stroke-width="0.05"
       id="polygon62"
       style="fill:none;stroke:#000000;stroke-opacity:1" />
  </g>
  <text
     xml:space="preserve"
     style="font-family:Garamond;-inkscape-font-specification:Garamond;fill:#000000;fill-opacity:1;stroke:none;stroke-opacity:1"
     x="365.76071"
     y="261.86838"
     id="text62"><tspan
       sodipodi:role="line"
       id="tspan62"
       x="365.76071"
       y="261.86838">LABOS</tspan></text>
</svg>
