<?xml version="1.0" encoding="UTF-8" standalone="no"?>
<svg
   id="svgCartoHexach0"
   width="786"
   height="643"
   version="1.1"
   sodipodi:docname="actants.svg"
   inkscape:version="1.3 (0e150ed, 2023-07-21)"
   xmlns:inkscape="http://www.inkscape.org/namespaces/inkscape"
   xmlns:sodipodi="http://sodipodi.sourceforge.net/DTD/sodipodi-0.dtd"
   xmlns="http://www.w3.org/2000/svg"
   xmlns:svg="http://www.w3.org/2000/svg">
  <defs
     id="defs39">
    <defs
       id="defs1">
      <marker
         id="arrow"
         viewBox="0 0 20 20"
         refX="10"
         refY="10"
         markerWidth="20"
         markerHeight="20"
         orient="auto-start-reverse">
        <path
           d="M 0,0 V 20 L 20,10"
           fill="#ffffff32"
           id="path1" />
      </marker>
      <marker
         id="point"
         viewBox="0 0 20 20"
         refX="10"
         refY="10"
         markerWidth="20"
         markerHeight="20"
         orient="auto">
        <circle
           r="5"
           cx="10"
           cy="10"
           fill="#ffffff32"
           id="circle1" />
      </marker>
    </defs>
  </defs>
  <sodipodi:namedview
     id="namedview39"
     pagecolor="#ffffff"
     bordercolor="#000000"
     borderopacity="0.25"
     inkscape:showpageshadow="2"
     inkscape:pageopacity="0.0"
     inkscape:pagecheckerboard="0"
     inkscape:deskcolor="#d1d1d1"
     inkscape:zoom="1.1697224"
     inkscape:cx="393.25569"
     inkscape:cy="321.87124"
     inkscape:window-width="1728"
     inkscape:window-height="966"
     inkscape:window-x="0"
     inkscape:window-y="38"
     inkscape:window-maximized="1"
     inkscape:current-layer="svgCartoHexach0" />
  <g
     class="gInit"
     id="ch0_hexa_0_-2_0_2"
     transform="matrix(0.74247245,0,0,0.74247245,170.25827,192.9)"
     style="fill:none;stroke:#000000;stroke-opacity:1">
    <polygon
       points="-50,86.60254 50,86.60254 100,0 50,-86.60254 -50,-86.60254 -100,-1.2246468e-14 "
       fill="#102040"
       stroke="#a8acaf"
       id="polygon1"
       style="fill:none;stroke:#000000;stroke-opacity:1" />
  </g>
  <g
     class="gInit"
     id="ch0_hexa_0_-2_1_1"
     transform="matrix(0.74247245,0,0,0.74247245,170.25827,321.5)"
     style="fill:none;stroke:#000000;stroke-opacity:1">
    <polygon
       points="-50,86.60254 50,86.60254 100,0 50,-86.60254 -50,-86.60254 -100,-1.2246468e-14 "
       fill="#102040"
       stroke="#a8acaf"
       id="polygon2"
       style="fill:none;stroke:#000000;stroke-opacity:1" />
  </g>
  <g
     class="gInit"
     id="ch0_hexa_0_-2_2_0"
     transform="matrix(0.74247245,0,0,0.74247245,170.25827,450.1)"
     style="fill:none;stroke:#000000;stroke-opacity:1">
    <polygon
       points="-50,86.60254 50,86.60254 100,0 50,-86.60254 -50,-86.60254 -100,-1.2246468e-14 "
       fill="#102040"
       stroke="#a8acaf"
       id="polygon3"
       style="fill:none;stroke:#000000;stroke-opacity:1" />
  </g>
  <g
     class="gInit"
     id="ch0_hexa_0_-1_-1_2"
     transform="matrix(0.74247245,0,0,0.74247245,281.62913,128.6)"
     style="fill:none;stroke:#000000;stroke-opacity:1">
    <polygon
       points="-50,86.60254 50,86.60254 100,0 50,-86.60254 -50,-86.60254 -100,-1.2246468e-14 "
       fill="#102040"
       stroke="#a8acaf"
       id="polygon4"
       style="fill:none;stroke:#000000;stroke-opacity:1" />
  </g>
  <g
     class="gInit"
     id="ch0_hexa_0_-1_0_1"
     transform="matrix(0.74247245,0,0,0.74247245,281.62913,257.2)"
     style="fill:none;stroke:#000000;stroke-opacity:1">
    <polygon
       points="-50,86.60254 50,86.60254 100,0 50,-86.60254 -50,-86.60254 -100,-1.2246468e-14 "
       fill="#102040"
       stroke="#a8acaf"
       id="polygon5"
       style="fill:none;stroke:#000000;stroke-opacity:1" />
  </g>
  <g
     class="gInit"
     id="ch0_hexa_0_-1_1_0"
     transform="matrix(0.74247245,0,0,0.74247245,281.62913,385.8)"
     style="fill:none;stroke:#000000;stroke-opacity:1">
    <polygon
       points="-50,86.60254 50,86.60254 100,0 50,-86.60254 -50,-86.60254 -100,-1.2246468e-14 "
       fill="#102040"
       stroke="#a8acaf"
       id="polygon6"
       style="fill:none;stroke:#000000;stroke-opacity:1" />
  </g>
  <g
     class="gInit"
     id="ch0_hexa_0_-1_2_-1"
     transform="matrix(0.74247245,0,0,0.74247245,281.62913,514.4)"
     style="fill:none;stroke:#000000;stroke-opacity:1">
    <polygon
       points="-50,86.60254 50,86.60254 100,0 50,-86.60254 -50,-86.60254 -100,-1.2246468e-14 "
       fill="#102040"
       stroke="#a8acaf"
       id="polygon7"
       style="fill:none;stroke:#000000;stroke-opacity:1" />
  </g>
  <g
     class="gInit"
     id="ch0_hexa_0_0_-2_2"
     transform="matrix(0.74247245,0,0,0.74247245,393,64.3)"
     style="fill:none;stroke:#000000;stroke-opacity:1">
    <polygon
       points="-50,86.60254 50,86.60254 100,0 50,-86.60254 -50,-86.60254 -100,-1.2246468e-14 "
       fill="#102040"
       stroke="#a8acaf"
       id="polygon8"
       style="fill:none;stroke:#000000;stroke-opacity:1" />
  </g>
  <g
     class="gInit"
     id="ch0_hexa_0_0_-1_1"
     transform="matrix(0.74247245,0,0,0.74247245,393,192.9)"
     style="fill:none;stroke:#000000;stroke-opacity:1">
    <polygon
       points="-50,86.60254 50,86.60254 100,0 50,-86.60254 -50,-86.60254 -100,-1.2246468e-14 "
       fill="#102040"
       stroke="#a8acaf"
       id="polygon9"
       style="fill:none;stroke:#000000;stroke-opacity:1" />
  </g>
  <g
     class="gOccupe"
     id="ch0_hexa_0_0_0_0"
     transform="matrix(0.74247245,0,0,0.74247245,393,321.5)"
     style="fill:none;stroke:#000000;stroke-opacity:1">
    <polygon
       points="-50,86.60254 50,86.60254 100,0 50,-86.60254 -50,-86.60254 -100,-1.2246468e-14 "
       fill="#102040"
       stroke="#a8acaf"
       id="polygon10"
       style="fill:none;stroke:#000000;stroke-opacity:1" />
  </g>
  <g
     class="gInit"
     id="ch0_hexa_0_0_1_-1"
     transform="matrix(0.74247245,0,0,0.74247245,393,450.1)"
     style="fill:none;stroke:#000000;stroke-opacity:1">
    <polygon
       points="-50,86.60254 50,86.60254 100,0 50,-86.60254 -50,-86.60254 -100,-1.2246468e-14 "
       fill="#102040"
       stroke="#a8acaf"
       id="polygon11"
       style="fill:none;stroke:#000000;stroke-opacity:1" />
  </g>
  <g
     class="gInit"
     id="ch0_hexa_0_0_2_-2"
     transform="matrix(0.74247245,0,0,0.74247245,393,578.7)"
     style="fill:none;stroke:#000000;stroke-opacity:1">
    <polygon
       points="-50,86.60254 50,86.60254 100,0 50,-86.60254 -50,-86.60254 -100,-1.2246468e-14 "
       fill="#102040"
       stroke="#a8acaf"
       id="polygon12"
       style="fill:none;stroke:#000000;stroke-opacity:1" />
  </g>
  <g
     class="gInit"
     id="ch0_hexa_0_1_-2_1"
     transform="matrix(0.74247245,0,0,0.74247245,504.37087,128.6)"
     style="fill:none;stroke:#000000;stroke-opacity:1">
    <polygon
       points="-50,86.60254 50,86.60254 100,0 50,-86.60254 -50,-86.60254 -100,-1.2246468e-14 "
       fill="#102040"
       stroke="#a8acaf"
       id="polygon13"
       style="fill:none;stroke:#000000;stroke-opacity:1" />
  </g>
  <g
     class="gInit"
     id="ch0_hexa_0_1_-1_0"
     transform="matrix(0.74247245,0,0,0.74247245,504.37087,257.2)"
     style="fill:none;stroke:#000000;stroke-opacity:1">
    <polygon
       points="-50,86.60254 50,86.60254 100,0 50,-86.60254 -50,-86.60254 -100,-1.2246468e-14 "
       fill="#102040"
       stroke="#a8acaf"
       id="polygon14"
       style="fill:none;stroke:#000000;stroke-opacity:1" />
  </g>
  <g
     class="gInit"
     id="ch0_hexa_0_1_0_-1"
     transform="matrix(0.74247245,0,0,0.74247245,504.37087,385.8)"
     style="fill:none;stroke:#000000;stroke-opacity:1">
    <polygon
       points="-50,86.60254 50,86.60254 100,0 50,-86.60254 -50,-86.60254 -100,-1.2246468e-14 "
       fill="#102040"
       stroke="#a8acaf"
       id="polygon15"
       style="fill:none;stroke:#000000;stroke-opacity:1" />
  </g>
  <g
     class="gInit"
     id="ch0_hexa_0_1_1_-2"
     transform="matrix(0.74247245,0,0,0.74247245,504.37087,514.4)"
     style="fill:none;stroke:#000000;stroke-opacity:1">
    <polygon
       points="-50,86.60254 50,86.60254 100,0 50,-86.60254 -50,-86.60254 -100,-1.2246468e-14 "
       fill="#102040"
       stroke="#a8acaf"
       id="polygon16"
       style="fill:none;stroke:#000000;stroke-opacity:1" />
  </g>
  <g
     class="gInit"
     id="ch0_hexa_0_2_-2_0"
     transform="matrix(0.74247245,0,0,0.74247245,615.74173,192.9)"
     style="fill:none;stroke:#000000;stroke-opacity:1">
    <polygon
       points="-50,86.60254 50,86.60254 100,0 50,-86.60254 -50,-86.60254 -100,-1.2246468e-14 "
       fill="#102040"
       stroke="#a8acaf"
       id="polygon17"
       style="fill:none;stroke:#000000;stroke-opacity:1" />
  </g>
  <g
     class="gInit"
     id="ch0_hexa_0_2_-1_-1"
     transform="matrix(0.74247245,0,0,0.74247245,615.74173,321.5)"
     style="fill:none;stroke:#000000;stroke-opacity:1">
    <polygon
       points="-50,86.60254 50,86.60254 100,0 50,-86.60254 -50,-86.60254 -100,-1.2246468e-14 "
       fill="#102040"
       stroke="#a8acaf"
       id="polygon18"
       style="fill:none;stroke:#000000;stroke-opacity:1" />
  </g>
  <g
     class="gInit"
     id="ch0_hexa_0_2_0_-2"
     transform="matrix(0.74247245,0,0,0.74247245,615.74173,450.1)"
     style="fill:none;stroke:#000000;stroke-opacity:1">
    <polygon
       points="-50,86.60254 50,86.60254 100,0 50,-86.60254 -50,-86.60254 -100,-1.2246468e-14 "
       fill="#102040"
       stroke="#a8acaf"
       id="polygon19"
       style="fill:none;stroke:#000000;stroke-opacity:1" />
  </g>
  <polygon
     points="-50,-86.60254 -100,-1.2246468e-14 -50,86.60254 50,86.60254 100,0 50,-86.60254 "
     fill="rgba(26, 199, 194, 0.1)"
     stroke="#000000"
     stroke-width="0.1"
     class="eHexaOut"
     id="polygon20"
     style="fill:none;stroke:#000000;stroke-opacity:1"
     transform="matrix(0.74247245,0,0,0.74247245,393,321.5)" />
  <g
     class="gInit cpt79697"
     id="ch0_espace_422811_79697_hexa_0_2_-2_0_2"
     transform="matrix(0.74247245,0,0,0.74247245,348.45165,295.78)"
     style="fill:none;stroke:#000000;stroke-opacity:1">
    <polygon
       points="-10,-17.320508 -20,-2.4492936e-15 -10,17.320508 10,17.320508 20,0 10,-17.320508 "
       fill="rgba(26, 199, 194, 0.1)"
       stroke="#ffffff"
       stroke-width="0.05"
       id="polygon21"
       style="fill:none;stroke:#000000;stroke-opacity:1" />
  </g>
  <g
     class="gInit cpt79697"
     id="ch0_espace_422811_79697_hexa_0_2_-2_1_1"
     transform="matrix(0.74247245,0,0,0.74247245,348.45165,321.5)"
     style="fill:none;stroke:#000000;stroke-opacity:1">
    <polygon
       points="-10,-17.320508 -20,-2.4492936e-15 -10,17.320508 10,17.320508 20,0 10,-17.320508 "
       fill="rgba(26, 199, 194, 0.1)"
       stroke="#ffffff"
       stroke-width="0.05"
       id="polygon22"
       style="fill:none;stroke:#000000;stroke-opacity:1" />
  </g>
  <g
     class="gInit cpt79697"
     id="ch0_espace_422811_79697_hexa_0_2_-2_2_0"
     transform="matrix(0.74247245,0,0,0.74247245,348.45165,347.22)"
     style="fill:none;stroke:#000000;stroke-opacity:1">
    <polygon
       points="-10,-17.320508 -20,-2.4492936e-15 -10,17.320508 10,17.320508 20,0 10,-17.320508 "
       fill="rgba(26, 199, 194, 0.1)"
       stroke="#ffffff"
       stroke-width="0.05"
       id="polygon23"
       style="fill:none;stroke:#000000;stroke-opacity:1" />
  </g>
  <g
     class="gInit cpt79697"
     id="ch0_espace_422811_79697_hexa_0_2_-1_-1_2"
     transform="matrix(0.74247245,0,0,0.74247245,370.72583,282.92)"
     style="fill:none;stroke:#000000;stroke-opacity:1">
    <polygon
       points="-10,-17.320508 -20,-2.4492936e-15 -10,17.320508 10,17.320508 20,0 10,-17.320508 "
       fill="rgba(26, 199, 194, 0.1)"
       stroke="#ffffff"
       stroke-width="0.05"
       id="polygon24"
       style="fill:none;stroke:#000000;stroke-opacity:1" />
  </g>
  <g
     class="gInit cpt79697"
     id="ch0_espace_422811_79697_hexa_0_2_-1_0_1"
     transform="matrix(0.74247245,0,0,0.74247245,370.72583,308.64)"
     style="fill:none;stroke:#000000;stroke-opacity:1">
    <polygon
       points="-10,-17.320508 -20,-2.4492936e-15 -10,17.320508 10,17.320508 20,0 10,-17.320508 "
       fill="rgba(26, 199, 194, 0.1)"
       stroke="#ffffff"
       stroke-width="0.05"
       id="polygon25"
       style="fill:none;stroke:#000000;stroke-opacity:1" />
  </g>
  <g
     class="gInit cpt79697"
     id="ch0_espace_422811_79697_hexa_0_2_-1_1_0"
     transform="matrix(0.74247245,0,0,0.74247245,370.72583,334.36)"
     style="fill:none;stroke:#000000;stroke-opacity:1">
    <polygon
       points="-10,-17.320508 -20,-2.4492936e-15 -10,17.320508 10,17.320508 20,0 10,-17.320508 "
       fill="rgba(26, 199, 194, 0.1)"
       stroke="#ffffff"
       stroke-width="0.05"
       id="polygon26"
       style="fill:none;stroke:#000000;stroke-opacity:1" />
  </g>
  <g
     class="gInit cpt79697"
     id="ch0_espace_422811_79697_hexa_0_2_-1_2_-1"
     transform="matrix(0.74247245,0,0,0.74247245,370.72583,360.08)"
     style="fill:none;stroke:#000000;stroke-opacity:1">
    <polygon
       points="-10,-17.320508 -20,-2.4492936e-15 -10,17.320508 10,17.320508 20,0 10,-17.320508 "
       fill="rgba(26, 199, 194, 0.1)"
       stroke="#ffffff"
       stroke-width="0.05"
       id="polygon27"
       style="fill:none;stroke:#000000;stroke-opacity:1" />
  </g>
  <g
     class="gInit cpt79697"
     id="ch0_espace_422811_79697_hexa_0_2_0_-2_2"
     transform="matrix(0.74247245,0,0,0.74247245,393,270.06)"
     style="fill:none;stroke:#000000;stroke-opacity:1">
    <polygon
       points="-10,-17.320508 -20,-2.4492936e-15 -10,17.320508 10,17.320508 20,0 10,-17.320508 "
       fill="rgba(26, 199, 194, 0.1)"
       stroke="#ffffff"
       stroke-width="0.05"
       id="polygon28"
       style="fill:none;stroke:#000000;stroke-opacity:1" />
  </g>
  <g
     class="gInit cpt79697"
     id="ch0_espace_422811_79697_hexa_0_2_0_-1_1"
     transform="matrix(0.74247245,0,0,0.74247245,393,295.78)"
     style="fill:none;stroke:#000000;stroke-opacity:1">
    <polygon
       points="-10,-17.320508 -20,-2.4492936e-15 -10,17.320508 10,17.320508 20,0 10,-17.320508 "
       fill="rgba(26, 199, 194, 0.1)"
       stroke="#ffffff"
       stroke-width="0.05"
       id="polygon29"
       style="fill:none;stroke:#000000;stroke-opacity:1" />
  </g>
  <g
     class="gInit cpt79697"
     id="ch0_espace_422811_79697_hexa_0_2_0_0_0"
     style="fill:none;stroke:#000000;stroke-opacity:1"
     transform="matrix(0.74247245,0,0,0.74247245,393,321.5)">
    <polygon
       points="-10,-17.320508 -20,-2.4492936e-15 -10,17.320508 10,17.320508 20,0 10,-17.320508 "
       fill="rgba(26, 199, 194, 0.1)"
       stroke="#ffffff"
       stroke-width="0.05"
       id="polygon30"
       style="fill:none;stroke:#000000;stroke-opacity:1" />
  </g>
  <g
     class="gInit cpt79697"
     id="ch0_espace_422811_79697_hexa_0_2_0_1_-1"
     transform="matrix(0.74247245,0,0,0.74247245,393,347.22)"
     style="fill:none;stroke:#000000;stroke-opacity:1">
    <polygon
       points="-10,-17.320508 -20,-2.4492936e-15 -10,17.320508 10,17.320508 20,0 10,-17.320508 "
       fill="rgba(26, 199, 194, 0.1)"
       stroke="#ffffff"
       stroke-width="0.05"
       id="polygon31"
       style="fill:none;stroke:#000000;stroke-opacity:1" />
  </g>
  <g
     class="gInit cpt79697"
     id="ch0_espace_422811_79697_hexa_0_2_0_2_-2"
     transform="matrix(0.74247245,0,0,0.74247245,393,372.94)"
     style="fill:none;stroke:#000000;stroke-opacity:1">
    <polygon
       points="-10,-17.320508 -20,-2.4492936e-15 -10,17.320508 10,17.320508 20,0 10,-17.320508 "
       fill="rgba(26, 199, 194, 0.1)"
       stroke="#ffffff"
       stroke-width="0.05"
       id="polygon32"
       style="fill:none;stroke:#000000;stroke-opacity:1" />
  </g>
  <g
     class="gInit cpt79697"
     id="ch0_espace_422811_79697_hexa_0_2_1_-2_1"
     transform="matrix(0.74247245,0,0,0.74247245,415.27417,282.92)"
     style="fill:none;stroke:#000000;stroke-opacity:1">
    <polygon
       points="-10,-17.320508 -20,-2.4492936e-15 -10,17.320508 10,17.320508 20,0 10,-17.320508 "
       fill="rgba(26, 199, 194, 0.1)"
       stroke="#ffffff"
       stroke-width="0.05"
       id="polygon33"
       style="fill:none;stroke:#000000;stroke-opacity:1" />
  </g>
  <g
     class="gInit cpt79697"
     id="ch0_espace_422811_79697_hexa_0_2_1_-1_0"
     transform="matrix(0.74247245,0,0,0.74247245,415.27417,308.64)"
     style="fill:none;stroke:#000000;stroke-opacity:1">
    <polygon
       points="-10,-17.320508 -20,-2.4492936e-15 -10,17.320508 10,17.320508 20,0 10,-17.320508 "
       fill="rgba(26, 199, 194, 0.1)"
       stroke="#ffffff"
       stroke-width="0.05"
       id="polygon34"
       style="fill:none;stroke:#000000;stroke-opacity:1" />
  </g>
  <g
     class="gInit cpt79697"
     id="ch0_espace_422811_79697_hexa_0_2_1_0_-1"
     transform="matrix(0.74247245,0,0,0.74247245,415.27417,334.36)"
     style="fill:none;stroke:#000000;stroke-opacity:1">
    <polygon
       points="-10,-17.320508 -20,-2.4492936e-15 -10,17.320508 10,17.320508 20,0 10,-17.320508 "
       fill="rgba(26, 199, 194, 0.1)"
       stroke="#ffffff"
       stroke-width="0.05"
       id="polygon35"
       style="fill:none;stroke:#000000;stroke-opacity:1" />
  </g>
  <g
     class="gInit cpt79697"
     id="ch0_espace_422811_79697_hexa_0_2_1_1_-2"
     transform="matrix(0.74247245,0,0,0.74247245,415.27417,360.08)"
     style="fill:none;stroke:#000000;stroke-opacity:1">
    <polygon
       points="-10,-17.320508 -20,-2.4492936e-15 -10,17.320508 10,17.320508 20,0 10,-17.320508 "
       fill="rgba(26, 199, 194, 0.1)"
       stroke="#ffffff"
       stroke-width="0.05"
       id="polygon36"
       style="fill:none;stroke:#000000;stroke-opacity:1" />
  </g>
  <g
     class="gInit cpt79697"
     id="ch0_espace_422811_79697_hexa_0_2_2_-2_0"
     transform="matrix(0.74247245,0,0,0.74247245,437.54835,295.78)"
     style="fill:none;stroke:#000000;stroke-opacity:1">
    <polygon
       points="-10,-17.320508 -20,-2.4492936e-15 -10,17.320508 10,17.320508 20,0 10,-17.320508 "
       fill="rgba(26, 199, 194, 0.1)"
       stroke="#ffffff"
       stroke-width="0.05"
       id="polygon37"
       style="fill:none;stroke:#000000;stroke-opacity:1" />
  </g>
  <g
     class="gInit cpt79697"
     id="ch0_espace_422811_79697_hexa_0_2_2_-1_-1"
     transform="matrix(0.74247245,0,0,0.74247245,437.54835,321.5)"
     style="fill:none;stroke:#000000;stroke-opacity:1">
    <polygon
       points="-10,-17.320508 -20,-2.4492936e-15 -10,17.320508 10,17.320508 20,0 10,-17.320508 "
       fill="rgba(26, 199, 194, 0.1)"
       stroke="#ffffff"
       stroke-width="0.05"
       id="polygon38"
       style="fill:none;stroke:#000000;stroke-opacity:1" />
  </g>
  <g
     class="gInit cpt79697"
     id="ch0_espace_422811_79697_hexa_0_2_2_0_-2"
     transform="matrix(0.74247245,0,0,0.74247245,437.54835,347.22)"
     style="fill:none;stroke:#000000;stroke-opacity:1">
    <polygon
       points="-10,-17.320508 -20,-2.4492936e-15 -10,17.320508 10,17.320508 20,0 10,-17.320508 "
       fill="rgba(26, 199, 194, 0.1)"
       stroke="#ffffff"
       stroke-width="0.05"
       id="polygon39"
       style="fill:none;stroke:#000000;stroke-opacity:1" />
  </g>
</svg>
